<?xml version="1.0" encoding="UTF-8" standalone="no"?>
<svg
   xmlns:dc="http://purl.org/dc/elements/1.1/"
   xmlns:cc="http://creativecommons.org/ns#"
   xmlns:rdf="http://www.w3.org/1999/02/22-rdf-syntax-ns#"
   xmlns:svg="http://www.w3.org/2000/svg"
   xmlns="http://www.w3.org/2000/svg"
   xmlns:sodipodi="http://sodipodi.sourceforge.net/DTD/sodipodi-0.dtd"
   xmlns:inkscape="http://www.inkscape.org/namespaces/inkscape"
   id="svg1011"
   xml:space="preserve"
   width="90"
   viewBox="0 0 90 90"
   version="1.0"
   height="90"
   sodipodi:docname="icon.svg"
   inkscape:version="0.92.2 (5c3e80d, 2017-08-06)"><sodipodi:namedview
     pagecolor="#ffffff"
     bordercolor="#666666"
     borderopacity="1"
     objecttolerance="10"
     gridtolerance="10"
     guidetolerance="10"
     inkscape:pageopacity="0"
     inkscape:pageshadow="2"
     inkscape:window-width="1920"
     inkscape:window-height="1017"
     id="namedview1345"
     showgrid="false"
     inkscape:zoom="2.1454545"
     inkscape:cx="46.14407"
     inkscape:cy="46.610168"
     inkscape:window-x="1912"
     inkscape:window-y="-8"
     inkscape:window-maximized="1"
     inkscape:current-layer="svg1011"
     fit-margin-top="0"
     fit-margin-left="0"
     fit-margin-right="0"
     fit-margin-bottom="0" /><metadata
     id="metadata1017"><rdf:RDF><cc:Work
         rdf:about=""><dc:format>image/svg+xml</dc:format><dc:type
           rdf:resource="http://purl.org/dc/dcmitype/StillImage" /><dc:title></dc:title></cc:Work></rdf:RDF></metadata><defs
     id="defs1015" /><g
     id="Artboard"
     transform="translate(-8.8559303,-11.610168)" /><circle
     cx="45"
     cy="45"
     r="45"
     style="fill:#a0c1b9;fill-opacity:1;stroke-width:0.81818187"
     id="circle918" /><g
     id="g1925"
     transform="translate(-10,-7.5)"><path
       d="m 87,73.727 c 0,1.607 -1.302,2.909 -2.909,2.909 H 25.909 C 24.302,76.636 23,75.334 23,73.727 V 33 c 0,-1.607 1.302,-2.909 2.909,-2.909 H 84.091 C 85.698,30.091 87,31.393 87,33 Z"
       style="fill:#3e3e3f"
       id="path920"
       inkscape:connector-curvature="0" /><rect
       height="7.4549999"
       style="fill:#e2e4e5"
       width="17.455"
       x="46.272999"
       y="76.636002"
       id="rect922" /><path
       d="M 69.545,85.545 C 69.545,86.348 68.894,87 68.09,87 H 41.909 c -0.803,0 -1.455,-0.651 -1.455,-1.455 0,-0.804 0.651,-1.455 1.455,-1.455 h 26.182 c 0.803,10e-4 1.454,0.652 1.454,1.455 z"
       style="fill:#f0f1f1"
       id="path924"
       inkscape:connector-curvature="0" /><path
       d="M 87,73.727 V 65 H 23 v 8.727 c 0,1.607 1.303,2.909 2.909,2.909 h 58.182 c 1.606,0 2.909,-1.302 2.909,-2.909 z"
       style="fill:#ffffff"
       id="path926"
       inkscape:connector-curvature="0" /><path
       d="m 55,74.909 c -2.156,0 -3.909,-1.753 -3.909,-3.909 0,-2.155 1.754,-3.909 3.909,-3.909 2.155,0 3.909,1.753 3.909,3.909 0,2.156 -1.753,3.909 -3.909,3.909 z m 0,-5.818 c -1.053,0 -1.909,0.856 -1.909,1.909 0,1.053 0.856,1.909 1.909,1.909 1.053,0 1.909,-0.856 1.909,-1.909 0,-1.052 -0.856,-1.909 -1.909,-1.909 z"
       style="fill:#cfd3d4"
       id="path928"
       inkscape:connector-curvature="0" /><path
       d="m 23,32.909 v 32 H 42.724 L 77.633,30 H 25.909 C 24.303,30 23,31.303 23,32.909 Z"
       style="fill:#5b5c5f"
       id="path930"
       inkscape:connector-curvature="0" /><path
       id="path932"
       style="fill:#ffffff"
       d="m 30.414,37.489 c 0,-1.104 0.378,-1.724 1.104,-1.724 0.727,0 1.104,0.62 1.104,1.724 0,1.109 -0.378,1.729 -1.104,1.729 -0.726,0 -1.104,-0.62 -1.104,-1.729 z m 1.749,0 c 0,-0.974 -0.237,-1.371 -0.644,-1.371 -0.402,0 -0.644,0.397 -0.644,1.371 0,0.979 0.242,1.376 0.644,1.376 0.406,-0.001 0.644,-0.398 0.644,-1.376 z m -0.645,-0.315 c 0.184,0 0.32,0.14 0.32,0.315 0,0.179 -0.136,0.32 -0.32,0.32 -0.179,0 -0.315,-0.141 -0.315,-0.32 0,-0.175 0.136,-0.315 0.315,-0.315 z"
       inkscape:connector-curvature="0" /><path
       id="path934"
       style="fill:#ffffff"
       d="m 34.408,36.312 -0.799,0.484 -0.213,-0.31 1.066,-0.664 h 0.392 v 2.979 h 0.683 V 39.16 H 33.59 v -0.359 h 0.819 v -2.489 z"
       inkscape:connector-curvature="0" /><path
       id="path936"
       style="fill:#ffffff"
       d="m 41.06,36.273 0.213,0.334 -1.695,1.037 1.695,1.041 -0.233,0.325 -1.846,-1.153 v -0.431 z"
       inkscape:connector-curvature="0" /><path
       id="path938"
       style="fill:#ffffff"
       d="m 43.742,39.16 v -1.564 h -1.211 v 1.564 h -0.46 v -3.337 h 0.46 v 1.395 h 1.211 v -1.395 h 0.46 v 3.337 z"
       inkscape:connector-curvature="0" /><path
       id="path940"
       style="fill:#ffffff"
       d="m 46.264,36.21 v 2.95 h -0.46 v -2.95 h -1.032 v -0.387 h 2.538 l -0.048,0.387 z"
       inkscape:connector-curvature="0" /><path
       id="path942"
       style="fill:#ffffff"
       d="m 49.822,39.16 -0.097,-1.71 c -0.024,-0.47 -0.024,-1.012 -0.019,-1.119 h -0.015 l -0.528,2.233 H 48.722 L 48.17,36.331 h -0.019 c 0,0.111 0.01,0.688 -0.01,1.119 l -0.082,1.71 h -0.426 l 0.189,-3.337 h 0.61 l 0.514,2.228 h 0.019 l 0.489,-2.228 h 0.615 l 0.189,3.337 z"
       inkscape:connector-curvature="0" /><path
       id="path944"
       style="fill:#ffffff"
       d="m 51.031,39.16 v -3.337 h 0.46 v 2.935 h 1.516 l -0.053,0.402 z"
       inkscape:connector-curvature="0" /><path
       id="path946"
       style="fill:#ffffff"
       d="m 55.796,37.426 v 0.431 l -1.846,1.153 -0.233,-0.325 1.695,-1.041 -1.695,-1.037 0.213,-0.334 z"
       inkscape:connector-curvature="0" /><path
       id="path948"
       style="fill:#ffffff"
       d="m 30.414,43.298 c 0,-1.104 0.378,-1.724 1.104,-1.724 0.727,0 1.104,0.62 1.104,1.724 0,1.109 -0.378,1.729 -1.104,1.729 -0.726,0 -1.104,-0.62 -1.104,-1.729 z m 1.749,0 c 0,-0.974 -0.237,-1.371 -0.644,-1.371 -0.402,0 -0.644,0.397 -0.644,1.371 0,0.979 0.242,1.376 0.644,1.376 0.406,-10e-4 0.644,-0.398 0.644,-1.376 z m -0.645,-0.315 c 0.184,0 0.32,0.14 0.32,0.315 0,0.179 -0.136,0.32 -0.32,0.32 -0.179,0 -0.315,-0.141 -0.315,-0.32 0,-0.175 0.136,-0.315 0.315,-0.315 z"
       inkscape:connector-curvature="0" /><path
       id="path950"
       style="fill:#ffffff"
       d="m 33.895,44.596 h 1.516 l -0.053,0.373 h -1.986 v -0.354 c 1.153,-1.143 1.507,-1.604 1.507,-2.107 0,-0.359 -0.242,-0.562 -0.567,-0.562 -0.276,0 -0.465,0.102 -0.669,0.358 l -0.31,-0.218 c 0.262,-0.324 0.591,-0.514 1.003,-0.514 0.61,0 1.003,0.388 1.003,0.921 -10e-4,0.582 -0.461,1.163 -1.444,2.103 z"
       inkscape:connector-curvature="0" /><path
       id="path964"
       style="fill:#ffffff"
       d="m 30.414,49.107 c 0,-1.104 0.378,-1.724 1.104,-1.724 0.727,0 1.104,0.62 1.104,1.724 0,1.109 -0.378,1.729 -1.104,1.729 -0.726,0 -1.104,-0.62 -1.104,-1.729 z m 1.749,0 c 0,-0.974 -0.237,-1.371 -0.644,-1.371 -0.402,0 -0.644,0.397 -0.644,1.371 0,0.979 0.242,1.376 0.644,1.376 0.406,-10e-4 0.644,-0.398 0.644,-1.376 z m -0.645,-0.315 c 0.184,0 0.32,0.14 0.32,0.315 0,0.179 -0.136,0.32 -0.32,0.32 -0.179,0 -0.315,-0.141 -0.315,-0.32 0,-0.175 0.136,-0.315 0.315,-0.315 z"
       inkscape:connector-curvature="0" /><path
       id="path966"
       style="fill:#ffffff"
       d="m 34.292,50.836 c -0.388,0 -0.785,-0.14 -1.041,-0.45 l 0.29,-0.242 c 0.189,0.223 0.465,0.329 0.736,0.329 0.45,0 0.722,-0.252 0.722,-0.659 0,-0.465 -0.286,-0.62 -0.678,-0.62 h -0.257 l 0.053,-0.344 h 0.175 c 0.32,0 0.62,-0.179 0.62,-0.567 0,-0.354 -0.271,-0.548 -0.615,-0.548 -0.286,0 -0.484,0.102 -0.702,0.305 l -0.242,-0.266 c 0.286,-0.271 0.615,-0.393 0.969,-0.393 0.639,0 1.037,0.383 1.037,0.838 0,0.407 -0.3,0.708 -0.634,0.771 v 0.019 c 0.368,0.024 0.741,0.3 0.741,0.809 -0.002,0.577 -0.472,1.018 -1.174,1.018 z"
       inkscape:connector-curvature="0" /><g
       id="g1181"
       transform="translate(0,0.191)"><path
         d="m 41.06,41.891 0.213,0.334 -1.695,1.037 1.695,1.041 -0.233,0.325 -1.846,-1.153 v -0.431 z"
         style="fill:#ffffff"
         id="path968"
         inkscape:connector-curvature="0" /><path
         d="m 43.742,44.778 v -1.564 h -1.211 v 1.564 h -0.46 V 41.44 h 0.46 v 1.395 h 1.211 V 41.44 h 0.46 v 3.337 h -0.46 z"
         style="fill:#ffffff"
         id="path970"
         inkscape:connector-curvature="0" /><path
         d="m 45.59,41.808 v 1.09 h 1.23 v 0.368 h -1.23 v 1.148 h 1.507 v 0.363 H 45.13 V 41.44 h 1.928 l -0.053,0.368 z"
         style="fill:#ffffff"
         id="path972"
         inkscape:connector-curvature="0" /><path
         d="m 49.575,43.94 h -1.284 l -0.257,0.838 h -0.46 l 1.08,-3.337 h 0.581 l 1.08,3.337 h -0.484 z m -1.172,-0.373 h 1.061 l -0.518,-1.71 h -0.019 z"
         style="fill:#ffffff"
         id="path974"
         inkscape:connector-curvature="0" /><path
         d="m 51.564,44.778 h -0.78 V 41.44 h 0.727 c 0.79,0 1.574,0.266 1.574,1.652 0,1.395 -0.814,1.686 -1.521,1.686 z m 0.048,-2.97 h -0.368 v 2.606 h 0.373 c 0.475,0 0.978,-0.242 0.978,-1.322 10e-4,-1.133 -0.527,-1.284 -0.983,-1.284 z"
         style="fill:#ffffff"
         id="path976"
         inkscape:connector-curvature="0" /><path
         d="m 55.796,42.996456 v 0.431 l -1.846,1.153 -0.233,-0.325 1.695,-1.041 -1.695,-1.037 0.213,-0.334 z"
         style="fill:#ffffff"
         id="path982"
         inkscape:connector-curvature="0" /></g><path
       id="path984"
       style="fill:#ffffff"
       d="m 30.414,54.916 c 0,-1.104 0.378,-1.724 1.104,-1.724 0.727,0 1.104,0.62 1.104,1.724 0,1.109 -0.378,1.729 -1.104,1.729 -0.726,0 -1.104,-0.62 -1.104,-1.729 z m 1.749,0 c 0,-0.974 -0.237,-1.371 -0.644,-1.371 -0.402,0 -0.644,0.397 -0.644,1.371 0,0.979 0.242,1.376 0.644,1.376 0.406,0 0.644,-0.398 0.644,-1.376 z m -0.645,-0.315 c 0.184,0 0.32,0.14 0.32,0.315 0,0.179 -0.136,0.32 -0.32,0.32 -0.179,0 -0.315,-0.141 -0.315,-0.32 0,-0.174 0.136,-0.315 0.315,-0.315 z"
       inkscape:connector-curvature="0" /><path
       id="path986"
       style="fill:#ffffff"
       d="m 35.101,55.788 v 0.799 H 34.67 v -0.799 h -1.366 v -0.315 l 0.978,-2.282 0.373,0.155 -0.882,2.088 h 0.896 l 0.044,-0.872 H 35.1 v 0.872 h 0.421 v 0.354 z"
       inkscape:connector-curvature="0" /><path
       id="path988"
       style="fill:#ffffff"
       d="m 41.06,53.7 0.213,0.334 -1.695,1.037 1.695,1.041 -0.233,0.325 -1.846,-1.153 v -0.431 z"
       inkscape:connector-curvature="0" /><path
       id="path990"
       style="fill:#ffffff"
       d="m 42.284,57.091 -0.359,-0.16 2.068,-4.267 0.354,0.17 z"
       inkscape:connector-curvature="0" /><path
       id="path992"
       style="fill:#ffffff"
       d="m 46.646,56.587 v -1.564 h -1.211 v 1.564 h -0.46 V 53.25 h 0.46 v 1.395 h 1.211 V 53.25 h 0.46 v 3.337 z"
       inkscape:connector-curvature="0" /><path
       id="path994"
       style="fill:#ffffff"
       d="m 48.495,53.618 v 1.09 h 1.23 v 0.368 h -1.23 v 1.148 h 1.507 v 0.363 H 48.035 V 53.25 h 1.928 l -0.053,0.368 z"
       inkscape:connector-curvature="0" /><path
       id="path996"
       style="fill:#ffffff"
       d="m 52.479,55.749 h -1.284 l -0.257,0.838 h -0.46 l 1.08,-3.337 h 0.581 l 1.08,3.337 h -0.484 z m -1.172,-0.373 h 1.061 l -0.518,-1.71 h -0.02 z"
       inkscape:connector-curvature="0" /><path
       id="path998"
       style="fill:#ffffff"
       d="m 54.468,56.587 h -0.78 V 53.25 h 0.727 c 0.79,0 1.574,0.266 1.574,1.652 0,1.395 -0.813,1.685 -1.521,1.685 z m 0.049,-2.969 h -0.368 v 2.606 h 0.373 c 0.475,0 0.978,-0.242 0.978,-1.322 0,-1.134 -0.528,-1.284 -0.983,-1.284 z"
       inkscape:connector-curvature="0" /><path
       id="path1004"
       style="fill:#ffffff"
       d="m 58.794263,54.805456 v 0.431 l -1.846,1.153 -0.233,-0.325 1.695,-1.041 -1.695,-1.037 0.213,-0.334 z"
       inkscape:connector-curvature="0" /><polygon
       style="fill:#ffffff"
       id="XMLID_201_"
       points="136,256 240.49915,360.49921 240.49915,305.07895 376,305.07895 376,206.92213 240.49915,206.92213 240.49915,151.50133 "
       transform="matrix(0.125,0,0,0.125,39.998957,17.108466)" /></g></svg>